<svg xmlns="http://www.w3.org/2000/svg" width="1809" height="1024"><path fill="#afb1b8" d="M855.272 101.282h-2.331c-3.582-.217-7.166-.304-10.75-.391h-7.77c-6.779 0-13.687.174-20.552.521a10.592 10.592 0 0 0-1.553 0 482.572 482.572 0 0 0-179.475 45.786l-7.383 3.559v377.876l17.27-5.859c15.153-5.209 31.3-9.895 48.009-14.235a585.886 585.886 0 0 1 138.158-18.357v49.647c-6.175.044-12.175.218-18.176.522h-1.425a552.382 552.382 0 0 0-106.295 16.317 539.917 539.917 0 0 0-126.63 49.345V121.376a507.345 507.345 0 0 1 132.847-54.032A508.458 508.458 0 0 1 834.42 51.2h7.296c8.721.217 17.227.608 25.214 1.215a360.026 360.026 0 0 1 62.385 9.938v48.867a386.153 386.153 0 0 0-60.443-9.114l-1.239-.105c-4.212-.359-8.429-.719-12.361-.719zm86.002 49.952c10.836.825 22.062 1.215 33.417 1.215a537.054 537.054 0 0 0 131.637-16.882 542.335 542.335 0 0 0 126.587-49.388v476a508.828 508.828 0 0 1-132.89 54.031 511.018 511.018 0 0 1-125.204 16.102 382.39 382.39 0 0 1-94.983-11.197V142.033c7.339 1.693 14.894 3.255 22.579 4.557 12.607 2.127 25.905 3.689 38.857 4.644zm242.25 3.689-17.27 5.815a760.45 760.45 0 0 1-48.01 14.365 584.739 584.739 0 0 1-143.468 18.401c-11.267 0-21.629-.304-31.645-.956l-13.773-.911v388.726l11.829 1.041c10.967.956 22.279 1.432 33.676 1.432a458.81 458.81 0 0 0 112.986-14.624 473.834 473.834 0 0 0 88.291-31.725l7.383-3.558V154.923zM609.913 771.625a25.448 25.448 0 0 0-8.784-5.936 25.362 25.362 0 0 0-10.428-1.833 28.539 28.539 0 0 0-11.095 2.084 25.623 25.623 0 0 0-8.636 5.685 24.978 24.978 0 0 0-5.569 8.68 28.181 28.181 0 0 0-1.987 10.72v64.751a30.526 30.526 0 0 0 2.548 13.28 26.019 26.019 0 0 0 6.475 8.68 22.693 22.693 0 0 0 8.895 4.601 36.135 36.135 0 0 0 9.67 1.345 24.232 24.232 0 0 0 10.448-2.256 27.313 27.313 0 0 0 8.636-5.99 28.144 28.144 0 0 0 5.654-8.68 26.18 26.18 0 0 0 2.074-10.329v-7.247h-16.925v5.772a15.027 15.027 0 0 1-.993 5.772 10.363 10.363 0 0 1-2.461 3.645 10.304 10.304 0 0 1-3.54 1.865 11.91 11.91 0 0 1-3.54.608 8.582 8.582 0 0 1-4.437-.662 8.65 8.65 0 0 1-3.507-2.809 15.327 15.327 0 0 1-2.244-8.68v-60.368a20.6 20.6 0 0 1 2.072-9.677c.879-1.367 2.121-2.458 3.587-3.149s3.094-.954 4.702-.758a9.005 9.005 0 0 1 7.555 3.645 13.762 13.762 0 0 1 2.806 8.68v5.598h16.753v-6.596a30.56 30.56 0 0 0-2.074-11.327 26.627 26.627 0 0 0-5.656-9.114zM710.467 770.886a30.126 30.126 0 0 0-19.255-7.117 29.584 29.584 0 0 0-10.103 1.823 27.415 27.415 0 0 0-8.936 5.294 26.629 26.629 0 0 0-6.564 9.071 30.23 30.23 0 0 0-2.461 12.542v62.104a29.971 29.971 0 0 0 2.461 12.716 25.214 25.214 0 0 0 6.564 8.678 26.45 26.45 0 0 0 8.936 5.47 29.66 29.66 0 0 0 10.103 1.823 29.258 29.258 0 0 0 10.102-1.823 28.273 28.273 0 0 0 9.153-5.47 26.52 26.52 0 0 0 6.39-8.678 29.94 29.94 0 0 0 2.461-12.716v-62.104a30.197 30.197 0 0 0-2.461-12.542 28 28 0 0 0-6.39-9.071zm-7.901 83.717a11.146 11.146 0 0 1-3.367 8.984c-2.236 1.874-5.055 2.901-7.967 2.901s-5.729-1.027-7.965-2.901a11.097 11.097 0 0 1-2.698-4.108 11.138 11.138 0 0 1-.669-4.876v-62.104a11.14 11.14 0 0 1 3.367-8.984c2.236-1.874 5.053-2.901 7.965-2.901s5.731 1.027 7.967 2.901c1.193 1.149 2.115 2.553 2.698 4.108s.811 3.22.669 4.876v62.104zM842.535 882.336V764.769h-16.276l-21.371 62.234h-.302l-21.545-62.234h-16.104v117.567h16.795v-71.521h.302l16.449 50.56h8.376l16.579-50.56h.302v71.521h16.795zM937.952 773.012a23.313 23.313 0 0 0-9.499-6.424 37.295 37.295 0 0 0-12.175-1.823h-24.953v117.569h16.751v-45.916h8.634a30.663 30.663 0 0 0 15.111-3.212 24.411 24.411 0 0 0 9.197-8.984 28.145 28.145 0 0 0 3.842-10.242c.659-4.424.963-8.895.906-13.367a66.925 66.925 0 0 0-1.64-16.795 25.027 25.027 0 0 0-6.173-10.807zm-8.636 35.847a14.787 14.787 0 0 1-1.555 6.12 9.424 9.424 0 0 1-4.316 4.122 17.166 17.166 0 0 1-7.902 1.476h-7.641v-39.97h8.634a16.074 16.074 0 0 1 7.555 1.475 9.496 9.496 0 0 1 3.929 4.34 17.161 17.161 0 0 1 1.468 6.554v7.811c0 2.734.172 5.555 0 8.073h-.172zM1017.305 764.769h-13.73l-25.904 117.567h16.751l4.922-25.259h22.839l4.922 25.259h16.753l-26.552-117.567zm-15.458 76.295 8.247-42.617h.302l8.204 42.617h-16.753zM1125.542 835.596h-.302l-25.3-70.827h-16.104v117.567h16.751v-70.697h.346l25.602 70.697h15.758V764.769h-16.751v70.827zM1227.906 764.769l-13.471 46.74h-.345l-13.471-46.74h-17.744l23.011 67.876v49.691h16.753v-49.691l23.011-67.876h-17.744zM563.2 915.533h8.074v22.654h5.482v-22.654h8.032v-4.644H563.2v4.644zM631.069 910.889l-10.578 27.298h5.828l2.246-6.205h10.88l2.331 6.205h5.958l-10.837-27.298h-5.828zm-.864 16.491 3.714-10.112 3.712 10.112h-7.426zM698.161 928.121h6.304v3.516a10.465 10.465 0 0 1-6.477 2.301 6.886 6.886 0 0 1-5.786-2.605 11.42 11.42 0 0 1-2.029-7.117c0-6.076 2.633-9.114 7.857-9.114a5.754 5.754 0 0 1 3.886 1.021 5.817 5.817 0 0 1 2.289 3.318l5.396-1.041c-1.166-5.338-5.007-8.028-11.571-8.028a13.725 13.725 0 0 0-9.54 3.516 13.37 13.37 0 0 0-3.929 10.502 14.884 14.884 0 0 0 3.497 10.243c1.336 1.379 2.956 2.449 4.745 3.139s3.705.98 5.617.853a16.397 16.397 0 0 0 11.571-4.34v-10.762H698.16v4.599zM766.679 910.889h-5.526v27.298h19.125v-4.644h-13.599v-22.654zM824.619 910.889h-5.526v27.298h5.526v-27.298zM881.263 929.118l-11.182-18.229h-5.354v27.298h5.137v-17.836l10.967 17.836h5.484v-27.298h-5.052v18.229zM932.468 926.165h13.6v-4.644h-13.6v-5.989h14.636v-4.644h-20.163v27.298h20.724v-4.644h-15.198v-7.378zM1056.635 921.653h-10.75v-10.764h-5.482v27.298h5.482v-11.935h10.75v11.935h5.484v-27.298h-5.484v10.764zM1108.142 926.165h13.643v-4.644h-13.643v-5.989h14.679v-4.644h-20.163v27.298h20.68v-4.644h-15.196v-7.378zM1177.998 926.167c4.748-.737 7.166-3.255 7.166-7.595.138-1.161-.038-2.338-.509-3.407s-1.22-1.992-2.169-2.669a15.432 15.432 0 0 0-7.987-1.606h-11.569v27.298h5.484v-11.414h1.079a7.354 7.354 0 0 1 3.41.608 5.72 5.72 0 0 1 1.944 1.997l5.958 8.68h6.562l-3.325-5.338a19.032 19.032 0 0 0-6.043-6.554zm-5.528-3.775h-4.057v-6.857h4.316a14.334 14.334 0 0 1 5.571.65 3.568 3.568 0 0 1-.26 5.555 15.58 15.58 0 0 1-5.571.652zM1230.671 926.165h13.599v-4.644h-13.599v-5.989h14.679v-4.644h-20.205v27.298h20.722v-4.644h-15.196v-7.378z"/></svg>