<svg xmlns="http://www.w3.org/2000/svg" width="1809" height="1024"><path fill="#afb1b8" d="M456.651 763.481c4.159 4.714 6.374 10.615 6.258 16.674.212 3.951-.55 7.897-2.229 11.542s-4.231 6.898-7.468 9.52c-8.079 5.586-18.087 8.317-28.189 7.69h-49.556V703.24h48.541c9.583-.584 19.087 1.898 26.894 7.02 3.133 2.403 5.617 5.439 7.25 8.87a22.355 22.355 0 0 1 2.164 10.902c.285 5.828-1.713 11.559-5.637 16.157-3.767 4.198-8.972 7.108-14.771 8.259 6.574 1.099 12.508 4.301 16.744 9.033zm-58.126-15.951h20.746c4.716.319 9.399-.927 13.193-3.511a12.584 12.584 0 0 0 3.543-4.687 11.591 11.591 0 0 0 .911-5.637 11.96 11.96 0 0 0-.932-5.613 12.936 12.936 0 0 0-3.466-4.71c-3.907-2.657-8.735-3.922-13.587-3.562h-20.408v27.72zm35.97 40.523c1.664-1.324 2.973-2.982 3.825-4.844a12.142 12.142 0 0 0 1.08-5.895c.126-2.038-.259-4.076-1.13-5.955s-2.2-3.552-3.888-4.884c-4.06-2.756-9.052-4.11-14.095-3.821h-21.762v29.063h22.043c4.961.263 9.873-1.031 13.926-3.664zM555.877 808.907l-27.005-41.296h-10.148v41.296h-23.228V703.24h43.974c11.085-.708 22.043 2.507 30.614 8.982 6.146 5.734 9.854 13.292 10.453 21.308s-1.947 15.966-7.183 22.415c-5.425 5.69-12.838 9.484-20.973 10.737l28.752 42.225h-25.257zm-37.153-55.699h18.999c13.193 0 19.789-5.333 19.789-16.002.135-2.178-.227-4.359-1.062-6.403s-2.125-3.907-3.787-5.47c-4.169-3.174-9.539-4.714-14.94-4.284h-19.226l.227 32.159zM682.841 787.637h-46.287l-8.175 21.268h-24.356l42.51-104.48h26.329l42.339 104.48h-24.354l-8.006-21.268zm-6.202-16.002-16.913-44.6-16.913 44.6h33.826zM841.769 808.907H818.71l-51.698-71.856v71.856H744.01V703.239h23.002l51.698 72.271v-72.271h23.059v105.668zM973.356 783.614c-4.768 7.977-12.032 14.467-20.861 18.635-10.037 4.642-21.176 6.929-32.416 6.659h-41.044V703.24h41.044c11.221-.268 22.345 1.964 32.416 6.504 8.827 4.074 16.099 10.498 20.861 18.429 4.746 8.595 7.219 18.089 7.219 27.72s-2.473 19.127-7.219 27.721zm-26.385-2.529c6.581-7.02 10.199-15.966 10.199-25.218 0-9.25-3.618-18.196-10.199-25.216-7.955-6.359-18.328-9.586-28.867-8.982h-16.01v68.398h16.01c10.539.602 20.912-2.625 28.867-8.982zM697.272 115.485s297.62 102.881 291.306 251.755v251.805S691.185 516.114 697.385 367.24l-.113-251.755zM1253.722 560.096c56.209-35.418 121.225-57.356 189.092-63.804v-78.826c-78.199 27.597-144.538 77.635-189.092 142.63z"/><path fill="#afb1b8" d="M1219.953 583.842c46.007-84.82 125.763-150.27 222.863-182.892V173.818s-423.851 146.551-414.886 358.557v358.508s18.886-6.557 48.597-18.843c0-11.459 0-23.021 1.353-34.637 8.772-98.423 59.875-189.628 142.071-253.561z"/><path fill="#afb1b8" d="M1179.643 717.024c2.227-24.863 7.195-49.457 14.828-73.405-51.181 55.212-82.178 123.723-88.625 195.901-.621 6.815-.959 13.628-1.128 20.649 24.073-10.583 52.093-23.798 81.522-39.335-7.509-34.149-9.731-69.094-6.596-103.81zM1196.501 718.314a325.124 325.124 0 0 0 5.243 94.001c115.801-63.442 245.92-161.469 240.903-279.939v-10.324c-82.734 8.475-160.142 41.591-220.326 94.259-14.09 32.638-22.793 67.016-25.82 102.002z"/></svg>