<svg xmlns="http://www.w3.org/2000/svg" width="1809" height="1024"><path fill="#afb1b8" d="M911.787 467.767c-7.562-10.066-11.18-21.963-10.32-33.939v-49.207c0-15.084 3.42-26.547 10.262-34.389 6.84-7.842 18.592-11.747 35.251-11.713 15.655 0 26.767 3.337 33.338 10.011 7.168 8.516 10.655 18.93 9.856 29.433v11.564h-28.003v-11.715a59.622 59.622 0 0 0-.812-11.462c-.403-2.596-1.812-4.995-4-6.808-2.876-1.954-6.497-2.901-10.146-2.654-3.837-.247-7.642.753-10.668 2.804-2.439 2.009-4.065 4.64-4.639 7.508a56.894 56.894 0 0 0-1.101 12.165v59.718c-.442 5.762.794 11.527 3.594 16.77 1.393 1.773 3.326 3.18 5.589 4.064a15.361 15.361 0 0 0 7.224.942c3.587.254 7.148-.717 9.914-2.703 2.282-1.956 3.75-4.507 4.175-7.258.654-3.961.945-7.962.87-11.964V426.82h28.003v11.063c.787 10.95-2.615 21.818-9.682 30.935-6.436 7.31-17.394 10.964-33.512 10.964s-28.295-3.905-35.193-12.015zM1028.384 468.268c-7.074-7.66-10.61-18.823-10.61-33.589v-51.76c0-14.616 3.536-25.679 10.61-33.188 7.072-7.509 18.901-11.247 35.482-11.213 16.466 0 28.237 3.738 35.309 11.213 7.074 7.509 10.668 18.572 10.668 33.188v51.76c0 14.616-3.594 25.829-10.784 33.538-7.188 7.709-18.9 11.564-35.193 11.564s-28.351-3.905-35.482-11.513zm48.528-12.414c2.533-4.797 3.686-10.052 3.364-15.317v-63.374c.324-5.163-.811-10.317-3.306-15.017-1.42-1.811-3.403-3.241-5.719-4.127a15.474 15.474 0 0 0-7.385-.879c-2.516-.302-5.079.005-7.404.889s-4.318 2.309-5.757 4.116c-2.55 4.687-3.705 9.847-3.362 15.017v63.674c-.353 5.267.802 10.527 3.362 15.317 1.632 1.615 3.647 2.908 5.907 3.796a19.766 19.766 0 0 0 7.197 1.345c2.481 0 4.936-.459 7.195-1.345s4.275-2.181 5.907-3.796v-.3zM1143.526 340.029h30.15l22.67 95.498 23.192-95.498h29.338l2.958 137.842h-21.685l-2.319-95.799-22.38 95.799h-17.394l-23.192-96.15-2.145 96.15h-21.915l2.724-137.842zM1285.635 340.029h46.962c27.057 0 40.585 13.046 40.585 39.141 0 24.992-14.242 37.472-42.73 37.437h-16.002v61.264h-28.989l.174-137.842zm40.122 58.911c2.864.314 5.772.087 8.525-.666 2.753-.751 5.284-2.01 7.419-3.688 3.325-4.656 4.791-10.124 4.175-15.567a43.094 43.094 0 0 0-1.393-12.513 10.142 10.142 0 0 0-2.133-3.782 12.02 12.02 0 0 0-3.664-2.775c-4.024-1.666-8.472-2.423-12.928-2.202h-11.249v41.192h11.249zM1414.987 340.029h31.135l31.945 137.842h-27.017l-6.32-31.783h-27.773l-6.494 31.783h-27.423l31.945-137.842zm26.612 90.094-10.842-57.859-10.841 57.859h21.683zM1503.869 340.029h20.292l38.847 78.631v-78.631h24.061v137.842h-19.308l-39.078-82.086v82.086h-24.873l.058-137.842zM1643.426 425.315l-32.295-85.093h27.192l19.714 54.659 18.495-54.659h26.612l-31.889 85.093v52.557h-27.829v-52.557zM956.547 538.139v7.209h-23.654v56.011h-9.916v-56.011h-23.77v-7.209h57.341zM1030.702 601.364h-7.654a3.403 3.403 0 0 1-2.145-.601 3.298 3.298 0 0 1-1.275-1.451l-6.842-15.017H979.97l-6.842 15.017a4.16 4.16 0 0 1-1.044 1.702 3.554 3.554 0 0 1-2.144.601h-7.654l28.989-63.217h10.09l29.338 62.966zm-48.008-23.475h27.368l-11.597-25.726a46.055 46.055 0 0 1-2.145-5.956c-.406 1.201-.754 2.352-1.101 3.354l-1.044 2.652-11.481 25.677zM1080.68 595.156a60.38 60.38 0 0 0 5.449 0 32.76 32.76 0 0 0 4.639-.751 35.901 35.901 0 0 0 4.175-1.152c1.277-.451 2.551-1.002 3.884-1.551v-14.218h-11.595a2.35 2.35 0 0 1-.843-.109 2.113 2.113 0 0 1-.722-.391c-.191-.142-.341-.319-.442-.519s-.148-.415-.138-.633v-4.855h22.496v24.23a44.051 44.051 0 0 1-5.798 3.004 42.72 42.72 0 0 1-6.436 2.152 52.158 52.158 0 0 1-7.248 1.302c-2.811.27-5.635.403-8.463.399a44.188 44.188 0 0 1-14.612-2.352c-4.34-1.507-8.284-3.755-11.595-6.608-3.227-2.883-5.769-6.284-7.479-10.011-1.828-4.192-2.732-8.639-2.668-13.116-.061-4.506.823-8.984 2.609-13.216 1.667-3.746 4.214-7.156 7.479-10.011 3.309-2.845 7.255-5.076 11.597-6.559a48.682 48.682 0 0 1 15.537-2.353c2.7-.002 5.395.183 8.059.551 2.357.331 4.669.869 6.9 1.603a33.375 33.375 0 0 1 5.798 2.502 41.104 41.104 0 0 1 5.045 3.304l-2.784 3.905a2.418 2.418 0 0 1-.94.867 2.907 2.907 0 0 1-1.321.335 3.79 3.79 0 0 1-1.797-.5c-.87-.401-1.797-.901-2.842-1.502a25.793 25.793 0 0 0-3.884-1.702 36.354 36.354 0 0 0-5.333-1.403 44.644 44.644 0 0 0-7.364-.55 34.272 34.272 0 0 0-11.189 1.751c-3.227 1.118-6.135 2.826-8.523 5.006-2.403 2.273-4.239 4.949-5.393 7.861-2.589 6.845-2.589 14.227 0 21.074 1.27 2.973 3.244 5.685 5.799 7.96 2.377 2.169 5.263 3.876 8.465 5.006a32.613 32.613 0 0 0 11.479 1.253zM1173.098 594.152h31.657v7.207h-41.339v-63.22h9.914l-.232 56.013zM1237.688 601.359h-9.916v-63.22h9.916v63.22zM1274.563 538.44c.589.29 1.103.683 1.507 1.152l42.382 47.655a15.128 15.128 0 0 1 0-2.253V537.89h8.639v63.474h-4.985a4.688 4.688 0 0 1-2.145-.352 5.615 5.615 0 0 1-1.567-1.201l-42.324-47.606v49.159h-8.291v-63.225h5.161a4.58 4.58 0 0 1 1.623.3zM1400.088 538.139v6.958h-35.135v20.874h28.467v6.707h-28.467v21.574h35.135v6.958h-45.339v-63.072h45.339zM361.16 147.721l440.236 107.917v378.163L361.16 525.933V147.72zm-28.235-32.236v428.818l496.65 121.783V237.318l-496.65-121.833z"/><path fill="#afb1b8" d="M599.107 865.147 102.4 743.262V314.489l496.707 121.836v428.822z"/><path fill="#afb1b8" d="m341.158 142.865 434.495 106.564-184.779 159.572-434.553-106.615 184.837-159.521zm-8.233-27.38L102.4 314.499l496.707 121.83 230.467-199.013-496.649-121.832zM627.053 841.025l202.52-174.887-202.52-49.702v224.589z"/></svg>