<svg xmlns="http://www.w3.org/2000/svg" width="1809" height="1024"><path fill="#afb1b8" d="M621.332 837.997c.271.007.539.06.787.157s.471.237.655.41l3.724 3.558c-2.891 2.879-6.461 5.183-10.47 6.753-4.695 1.712-9.754 2.538-14.843 2.425-4.784.085-9.535-.684-13.961-2.265-3.992-1.451-7.578-3.628-10.516-6.388-2.999-2.862-5.308-6.217-6.793-9.866-1.626-4.069-2.43-8.351-2.374-12.657-.067-4.333.802-8.639 2.56-12.696 1.625-3.673 4.077-7.026 7.212-9.866 3.178-2.784 6.979-4.973 11.167-6.429a43.76 43.76 0 0 1 14.379-2.265 38.72 38.72 0 0 1 13.355 2.062c3.685 1.389 7.069 3.318 10.004 5.702l-3.118 3.801c-.215.268-.483.5-.79.688a2.14 2.14 0 0 1-1.256.283 3.038 3.038 0 0 1-1.35-.404l-1.676-1.012-2.326-1.294a26.483 26.483 0 0 0-3.118-1.253 32.168 32.168 0 0 0-4.234-1.01 32.22 32.22 0 0 0-5.536-.404 30.035 30.035 0 0 0-10.33 1.698c-3.057 1.073-5.818 2.7-8.096 4.77-2.321 2.203-4.108 4.789-5.258 7.603a25.577 25.577 0 0 0-1.908 10.027 26.126 26.126 0 0 0 1.908 10.191c1.135 2.789 2.891 5.359 5.164 7.561 2.132 2.053 4.774 3.657 7.724 4.692a27.656 27.656 0 0 0 9.586 1.616c1.9.026 3.797-.082 5.676-.323 3.069-.326 6.013-1.253 8.608-2.71a28.028 28.028 0 0 0 3.676-2.507 2.926 2.926 0 0 1 1.768-.647zM728.82 820.118c.058 4.291-.794 8.552-2.512 12.575-1.517 3.647-3.905 6.975-7.009 9.762-3.104 2.789-6.852 4.973-10.998 6.41-9.11 3.019-19.181 3.019-28.291 0-4.12-1.459-7.844-3.649-10.935-6.429-3.103-2.838-5.509-6.193-7.074-9.865-3.352-8.144-3.352-17.046 0-25.189 1.589-3.674 3.992-7.04 7.074-9.907 3.116-2.691 6.839-4.797 10.935-6.185 9.098-3.074 19.191-3.074 28.291 0 4.134 1.459 7.873 3.647 10.981 6.429 3.063 2.809 5.451 6.122 7.026 9.743 1.724 4.048 2.575 8.339 2.512 12.655zm-9.771 0a26.744 26.744 0 0 0-1.768-10.109c-1.043-2.79-2.739-5.364-4.98-7.561-2.181-2.077-4.867-3.707-7.863-4.77-6.62-2.21-13.949-2.21-20.567 0-2.997 1.063-5.683 2.693-7.864 4.77-2.272 2.183-3.985 4.76-5.024 7.561a29.644 29.644 0 0 0 0 20.217c1.05 2.797 2.761 5.373 5.024 7.561 2.185 2.065 4.871 3.681 7.864 4.731 6.63 2.154 13.935 2.154 20.567 0 2.992-1.05 5.678-2.666 7.863-4.731 2.232-2.202 3.925-4.774 4.98-7.561a26.501 26.501 0 0 0 1.768-10.109zM802.156 830.715l.976 2.265c.372-.809.698-1.538 1.07-2.265.355-.759.759-1.502 1.21-2.224l23.777-37.557c.466-.647.884-1.05 1.35-1.172a6.352 6.352 0 0 1 1.954-.201h7.026v61.085h-8.329v-46.814c-.046-.7-.046-1.403 0-2.103l-23.917 38.083a3.464 3.464 0 0 1-1.401 1.389 4.182 4.182 0 0 1-2.043.51h-1.35a4.157 4.157 0 0 1-2.048-.503 3.419 3.419 0 0 1-1.394-1.396l-24.615-38.325v49.037h-8.05V789.56h7.026a6.383 6.383 0 0 1 1.954.201c.577.249 1.038.664 1.304 1.172l24.289 37.598c.476.695.882 1.425 1.21 2.183zM891.636 827.68v22.881h-9.306v-61.003h20.753a44.438 44.438 0 0 1 11.587 1.333c3.012.742 5.804 2.038 8.189 3.801 2.067 1.652 3.661 3.7 4.654 5.984a18.392 18.392 0 0 1 1.582 7.801 17.477 17.477 0 0 1-1.722 7.803c-1.12 2.34-2.838 4.429-5.026 6.105-2.388 1.835-5.193 3.214-8.235 4.041a39.242 39.242 0 0 1-11.215 1.415l-11.261-.16zm0-6.55h11.261a26.001 26.001 0 0 0 7.212-.928 15.755 15.755 0 0 0 5.21-2.628c1.399-1.12 2.481-2.502 3.164-4.043a11.7 11.7 0 0 0 1.118-5.134 10.314 10.314 0 0 0-.934-4.97c-.724-1.577-1.835-3-3.255-4.166-3.555-2.412-8.02-3.581-12.517-3.275h-11.261v25.144zM1016.713 850.644h-7.352a3.493 3.493 0 0 1-2.046-.567 3.788 3.788 0 0 1-1.21-1.415l-6.328-14.758h-31.782l-6.56 14.758a3.368 3.368 0 0 1-1.164 1.376 3.496 3.496 0 0 1-2.094.606h-7.352l27.919-61.092h9.679l28.291 61.092zm-46.067-22.682h26.243l-11.075-24.866a40.255 40.255 0 0 1-2.092-5.741l-1.072 3.195c-.324.969-.698 1.86-1.022 2.587l-10.982 24.825zM1056.916 789.837a3.96 3.96 0 0 1 1.396 1.091l40.716 46.051v-47.426h8.329v61.09h-4.652a4.518 4.518 0 0 1-1.908-.364 5.108 5.108 0 0 1-1.49-1.132l-40.668-46.01c.044.7.044 1.401 0 2.103v45.403h-8.329v-61.09h4.932a4.408 4.408 0 0 1 1.674.283zM1175.945 826.348v24.259h-9.306v-24.259l-25.731-36.791h8.329a3.348 3.348 0 0 1 2.002.524c.505.393.93.858 1.256 1.376l16.099 23.733c.652 1.01 1.21 1.94 1.676 2.83s.838 1.739 1.164 2.587l1.208-2.628c.452-.961.981-1.893 1.582-2.789l15.869-23.895a6.454 6.454 0 0 1 1.21-1.294 3.109 3.109 0 0 1 2-.606h8.422l-25.779 36.953zM797.548 687.037c4.048.445 8.144.809 12.285 1.133 62.787-24.404 115.9-64.345 152.704-114.83 36.804-50.487 55.665-109.278 54.224-169.025l-69.193-60.119c14.068 63.613 7.487 129.372-19.007 189.92s-71.856 113.497-131.012 152.921z"/><path fill="#afb1b8" d="m772.84 684.242 1.862.323c63.213-39.284 111.408-94.141 138.351-157.479s31.396-132.243 12.785-197.803l-98.555-85.627c39.863 70.385 55.909 149.154 46.269 227.149-9.638 77.995-44.561 152.009-100.712 213.437zM1107.079 474.906c-16.744 65.649-57.411 124.856-115.958 168.83-17.099 12.913-35.543 24.417-55.095 34.364 47.676-12.175 91.496-33.7 128.084-62.915 36.586-29.216 64.963-65.341 82.939-105.591l-39.97-34.688z"/><path fill="#afb1b8" d="m1091.396 465.239-56.907-49.446c-1.089 56.373-19.535 111.464-53.42 159.548-33.886 48.082-81.975 87.404-139.269 113.874h.28a371.19 371.19 0 0 0 38.202-1.981c53.545-18.988 100.847-49.198 137.684-87.934 36.838-38.736 62.065-84.792 73.431-134.06zM781.076 207.546l-67.889-59.067c-60.691 20.377-112.889 56.198-149.76 102.776s-56.699 101.743-56.888 158.275c.227 62.466 24.426 123.081 68.765 172.252s106.288 84.091 176.039 99.229c62.266-65.911 98.722-147.359 104.069-232.503 5.347-85.146-20.692-169.556-74.336-240.963zM1248.256 456.146c-.246-74.112-34.239-145.126-94.556-197.531-60.315-52.405-142.051-81.94-227.35-82.154-39.417-.036-78.498 6.284-115.26 18.637l415.669 361.149c14.232-31.923 21.521-65.865 21.497-100.101z"/></svg>