<svg xmlns="http://www.w3.org/2000/svg" aria-hidden="true" style="position:absolute;width:0;height:0;overflow:hidden">
  <defs>
    <symbol id="icon-teleg" viewBox="0 0 32 32">
      <path fill="#fff" d="M32 0 0 18l10.227 3.788L26 7 14.002 23.186l.01.004-.012-.004V32l5.735-6.691L27 28l5-28z" style="fill:var(--color1, #fff)"/>
    </symbol>
    <symbol id="icon-like" viewBox="0 0 32 32">
      <path fill="#fff" stroke="#fff" stroke-width=".492" d="m4.817 15.389-.169-.162-2.544 2.41 8.962 8.55L29.895 8.225l-2.527-2.411L11.066 21.35l-6.249-5.962z" style="fill:var(--color1, #fff);stroke:var(--color1, #fff)"/>
    </symbol>
    <symbol id="icon-mail" viewBox="0 0 32 32">
      <path d="M27.638 4H3.799C2.16 4 .834 5.35.834 7L.819 25c0 1.65 1.341 3 2.98 3h23.839c1.639 0 2.98-1.35 2.98-3V7c0-1.65-1.341-3-2.98-3zm-.596 6.375-10.534 6.63c-.477.3-1.103.3-1.579 0l-10.534-6.63a1.287 1.287 0 0 1-.596-1.08 1.265 1.265 0 0 1 1.937-1.08l9.983 6.285 9.983-6.285a1.265 1.265 0 0 1 1.937 1.08c0 .435-.223.84-.596 1.08z"/>
    </symbol>
    <symbol id="icon-telefon" viewBox="0 0 32 32">
      <path d="m27.021 20.852-4.173-.48a3.26 3.26 0 0 0-2.695.943l-3.023 3.044A24.804 24.804 0 0 1 6.302 13.458l3.04-3.06a3.305 3.305 0 0 0 .937-2.713l-.476-4.168A3.296 3.296 0 0 0 6.533.589H3.691C1.834.589.29 2.144.405 4.013c.871 14.126 12.093 25.407 26.108 26.284 1.857.116 3.401-1.439 3.401-3.308v-2.861a3.27 3.27 0 0 0-2.892-3.275z"/>
    </symbol>
    <symbol id="icon-contact" viewBox="0 0 32 32">
      <path d="M16.885 16c4.053 0 7.335-3.305 7.335-7.385S20.938 1.23 16.885 1.23 9.55 4.535 9.55 8.615 12.833 16 16.885 16zm0 3.692c-4.896 0-14.67 2.474-14.67 7.385v1.846c0 1.015.825 1.846 1.834 1.846h25.673a1.845 1.845 0 0 0 1.834-1.846v-1.846c0-4.911-9.774-7.385-14.67-7.385z"/>
    </symbol>
  </defs>
</svg>
